<?xml version="1.0" encoding="UTF-8"?>
<svg xmlns="http://www.w3.org/2000/svg" xmlns:xlink="http://www.w3.org/1999/xlink" viewBox="0 0 96 96" width="96px" height="96px">
<g id="surface70035646">
<path style=" stroke:none;fill-rule:nonzero;fill:rgb(18.039216%,80.000001%,44.313726%);fill-opacity:1;" d="M 30 4 C 29.488281 4 28.976562 4.195312 28.585938 4.585938 C 27.804688 5.367188 27.804688 6.632812 28.585938 7.414062 L 33.828125 12.65625 C 27.875 17.023438 24 24.050781 24 32 L 72 32 C 72 24.050781 68.125 17.023438 62.171875 12.65625 L 67.414062 7.414062 C 68.195312 6.628906 68.195312 5.371094 67.414062 4.585938 C 66.632812 3.804688 65.367188 3.804688 64.585938 4.585938 L 58.65625 10.515625 C 55.441406 8.917969 51.832031 8 48 8 C 44.167969 8 40.558594 8.917969 37.34375 10.515625 L 31.414062 4.585938 C 31.023438 4.195312 30.511719 4 30 4 Z M 36 20 L 40 20 L 40 24 L 36 24 Z M 56 20 L 60 20 L 60 24 L 56 24 Z M 16 36 C 13.792969 36 12 37.792969 12 40 L 12 64 C 12 66.207031 13.792969 68 16 68 C 18.207031 68 20 66.207031 20 64 L 20 40 C 20 37.792969 18.207031 36 16 36 Z M 24 36 L 24 68 C 24 70.207031 25.792969 72 28 72 L 32 72 L 32 86 C 32 89.3125 34.6875 92 38 92 C 41.3125 92 44 89.3125 44 86 L 44 72 L 52 72 L 52 86 C 52 89.3125 54.6875 92 58 92 C 61.3125 92 64 89.3125 64 86 L 64 72 L 68 72 C 70.207031 72 72 70.207031 72 68 L 72 36 Z M 80 36 C 77.792969 36 76 37.792969 76 40 L 76 64 C 76 66.207031 77.792969 68 80 68 C 82.207031 68 84 66.207031 84 64 L 84 40 C 84 37.792969 82.207031 36 80 36 Z M 80 36 "/>
</g>
</svg>
