<?xml version="1.0" encoding="UTF-8"?>
<svg xmlns="http://www.w3.org/2000/svg" xmlns:xlink="http://www.w3.org/1999/xlink" viewBox="0 0 100 100" width="100px" height="100px">
<g id="surface70029189">
<path style=" stroke:none;fill-rule:nonzero;fill:rgb(18.039216%,80.000001%,44.313726%);fill-opacity:1;" d="M 18.867188 16 C 17.8125 16 16.945312 16.359375 16.203125 17.101562 C 12.53125 20.75 8.851562 24.382812 5.15625 28.007812 C 4.375 28.773438 4 29.664062 4 30.734375 C 4.015625 46.8125 4.015625 78.765625 4.015625 81.765625 L 4.15625 83.992188 L 6.15625 83.992188 C 9.101562 83.992188 57.046875 83.984375 81.101562 84 C 82.1875 84 83.09375 83.625 83.890625 82.84375 C 87.523438 79.21875 91.171875 75.617188 94.835938 72.03125 C 95.617188 71.25 96 70.34375 96 69.234375 C 95.984375 52.492188 96 18 96 18 L 96 16 Z M 38.1875 28 C 40.070312 28.007812 41.9375 28.164062 43.789062 28.640625 C 47.546875 29.601562 50.21875 31.804688 51.789062 35.320312 C 52.710938 37.390625 53.25 39.5625 53.5625 41.789062 C 53.890625 44.179688 54.039062 46.59375 53.984375 49 C 53.914062 52.125 53.695312 55.226562 52.828125 58.25 C 52.21875 60.367188 51.289062 62.320312 49.742188 63.929688 C 49.15625 64.546875 48.476562 65.078125 47.804688 65.6875 C 49.359375 68.164062 50.929688 70.671875 52.5625 73.265625 C 50.585938 74.179688 48.65625 75.070312 46.632812 76 C 44.929688 73.242188 43.242188 70.507812 41.570312 67.8125 C 38.242188 68.265625 35.007812 68.164062 31.820312 67.328125 C 28.148438 66.367188 25.539062 64.1875 24.054688 60.71875 C 23.226562 58.789062 22.742188 56.789062 22.4375 54.734375 C 22.109375 52.539062 21.976562 50.320312 22 48.101562 C 22.039062 44.8125 22.234375 41.53125 23.179688 38.34375 C 23.523438 37.179688 23.960938 36.03125 24.46875 34.929688 C 25.929688 31.765625 28.4375 29.78125 31.78125 28.789062 C 33.257812 28.359375 34.757812 28.109375 36.289062 28.039062 C 36.921875 28.015625 37.554688 28 38.1875 28 Z M 62 32 L 68 32 L 68 40 L 76 40 L 76 46 L 68 46 C 68 46 67.976562 52.21875 68 56 C 68.007812 57.0625 68.039062 58.695312 68.125 59.75 C 68.140625 60.03125 68.21875 60.304688 68.289062 60.585938 C 68.476562 61.257812 68.921875 61.703125 69.59375 61.84375 C 70.125 61.953125 70.671875 62.007812 71.210938 62 C 72.460938 61.976562 74.039062 61.78125 75.289062 61.734375 C 75.40625 61.726562 75.515625 61.757812 75.726562 61.773438 C 75.859375 63.34375 75.945312 65.53125 76 67.164062 C 75.429688 67.273438 74.898438 67.375 74.375 67.46875 C 72.507812 67.804688 70.296875 68.101562 68.40625 67.9375 C 67.414062 67.84375 66.445312 67.640625 65.523438 67.25 C 64.3125 66.726562 63.453125 65.875 62.9375 64.65625 C 62.320312 63.226562 62 61.539062 62 60 L 62 46 L 58 46 L 58 40 L 62 40 Z M 37.992188 34.039062 C 36.804688 34.039062 35.617188 34.179688 34.4375 34.46875 C 32.34375 34.992188 30.773438 36.101562 29.84375 37.875 C 29.617188 38.296875 29.40625 38.734375 29.242188 39.179688 C 28.414062 41.328125 28.085938 43.5625 28.023438 45.820312 C 27.96875 47.90625 28.015625 50 28.125 52.085938 C 28.234375 53.945312 28.617188 55.765625 29.335938 57.53125 C 30.226562 59.710938 31.921875 61.078125 34.4375 61.640625 C 36.835938 62.179688 39.242188 62.171875 41.632812 61.625 C 43.984375 61.078125 45.65625 59.820312 46.5 57.757812 C 46.71875 57.234375 46.914062 56.695312 47.070312 56.148438 C 47.8125 53.578125 47.890625 50.953125 48 47.570312 C 47.882812 46.351562 47.765625 44.382812 47.515625 42.429688 C 47.3125 40.8125 46.851562 39.242188 46.039062 37.773438 C 45.09375 36.0625 43.578125 34.96875 41.539062 34.46875 C 40.359375 34.179688 39.171875 34.039062 37.992188 34.039062 Z M 37.992188 34.039062 "/>
</g>
</svg>
